<svg width="1430" height="811" viewBox="0 0 1430 811" fill="none" xmlns="http://www.w3.org/2000/svg">
<path fill-rule="evenodd" clip-rule="evenodd" d="M649.281 0.450256H0V745.026C10.6945 704.021 45.6146 673.65 91.265 670.978C162.511 657.825 198.974 681.619 218.049 717.371C243.654 704.613 273.807 696.494 306.838 694.597C342.887 692.528 377.835 698.13 408.921 709.627C436.076 663.376 493.209 630.221 563.688 626.174C650.136 621.21 730.256 661.556 764.855 721.675C769.822 720.806 774.915 720.202 780.12 719.879C821.852 717.285 861.629 733.304 889.632 760.354C912.888 735.38 950.157 718.125 994.053 715.333C1030.97 712.985 1066.11 721.28 1094.05 736.829C1088.84 677.694 1135.31 627.301 1200.17 623.116C1300.23 605.241 1336.42 648.19 1349.95 699.552C1365.99 689.85 1385.05 683.682 1406.01 682.299C1414.45 680.784 1422.44 679.699 1430 679.013V372.824V0.450256H649.281ZM3.37549 810.937C2.07286 807.249 0.943869 803.483 0 799.649V810.937H3.37549Z" fill="url(#paint0_linear)"/>
<path fill-rule="evenodd" clip-rule="evenodd" d="M649.281 0.450256H0V745.026C10.6945 704.021 45.6146 673.65 91.265 670.978C162.511 657.825 198.974 681.619 218.049 717.371C243.654 704.613 273.807 696.494 306.838 694.597C342.887 692.528 377.835 698.13 408.921 709.627C436.076 663.376 493.209 630.221 563.688 626.174C650.136 621.21 730.256 661.556 764.855 721.675C769.822 720.806 774.915 720.202 780.12 719.879C821.852 717.285 861.629 733.304 889.632 760.354C912.888 735.38 950.157 718.125 994.053 715.333C1030.97 712.985 1066.11 721.28 1094.05 736.829C1088.84 677.694 1135.31 627.301 1200.17 623.116C1300.23 605.241 1336.42 648.19 1349.95 699.552C1365.99 689.85 1385.05 683.682 1406.01 682.299C1414.45 680.784 1422.44 679.699 1430 679.013V372.824V0.450256H649.281ZM3.37549 810.937C2.07286 807.249 0.943869 803.483 0 799.649V810.937H3.37549Z" fill="url(#paint1_linear)" fill-opacity="0.29"/>
<path d="M618.151 15.1151C618.151 121.952 679.139 159.162 800.978 121.952L734.467 15.1151C716.188 16.8583 618.151 -19.7493 618.151 15.1151Z" fill="#F65C5C"/>
<path d="M1426.54 2.70163H655.705V65.7395L692.27 128.777H781.213C843.473 104.913 955.639 54.0325 968.981 54.0325C997.486 54.0325 969.969 93.9564 955.639 104.913C1003.9 80.8986 1104.57 39.4437 1067.81 65.7395C1021.85 98.6092 1179.48 297.629 1149.83 198.569C1120.18 99.5098 1163.17 72.6324 1225.43 65.7395C1260.68 61.8371 1329.39 65.7395 1354.4 128.777C1384.05 203.522 1364.28 191.815 1354.4 254.853C1346.49 305.283 1399.2 344.007 1426.54 357.064V2.70163Z" fill="#C4C4C4"/>
<path d="M1426.54 2.70163H655.705V65.7395L692.27 128.777H781.213C843.473 104.913 955.639 54.0325 968.981 54.0325C997.486 54.0325 969.969 93.9564 955.639 104.913C1003.9 80.8986 1104.57 39.4437 1067.81 65.7395C1021.85 98.6092 1179.48 297.629 1149.83 198.569C1120.18 99.5098 1163.17 72.6324 1225.43 65.7395C1260.68 61.8371 1329.39 65.7395 1354.4 128.777C1384.05 203.522 1364.28 191.815 1354.4 254.853C1346.49 305.283 1399.2 344.007 1426.54 357.064V2.70163Z" fill="url(#paint2_linear)"/>
<defs>
<linearGradient id="paint0_linear" x1="602.833" y1="45.6736" x2="728.079" y2="812.196" gradientUnits="userSpaceOnUse">
<stop stop-color="#4E5AC7" stop-opacity="0.95"/>
<stop offset="0.820121" stop-color="#67DBFF" stop-opacity="0.79"/>
<stop offset="1" stop-color="#FAFAFA" stop-opacity="0.93"/>
</linearGradient>
<linearGradient id="paint1_linear" x1="1103.88" y1="61.55" x2="1085.14" y2="738.486" gradientUnits="userSpaceOnUse">
<stop stop-color="#9D75B0"/>
<stop offset="0.244792" stop-color="#B7427A"/>
<stop offset="0.838542" stop-color="#581FD2" stop-opacity="0.97"/>
</linearGradient>
<linearGradient id="paint2_linear" x1="962.063" y1="29.7179" x2="1053.5" y2="211.181" gradientUnits="userSpaceOnUse">
<stop stop-color="#F75C5C" stop-opacity="0.94"/>
<stop offset="0.984375" stop-color="#3666AE" stop-opacity="0.9"/>
</linearGradient>
</defs>
</svg>
