<svg width="1440" height="900" viewBox="0 0 1440 900" fill="none" xmlns="http://www.w3.org/2000/svg">
<path fill-rule="evenodd" clip-rule="evenodd" d="M-18 -14H1040.14C1041.27 -7.05279 1042.11 1.782 1043.06 11.717C1049.65 80.6194 1061.29 202.44 1207.96 114.516C1300.01 59.3421 1312.29 114.276 1322.01 157.76C1330.01 193.562 1336.28 221.601 1383.9 174.034C1453.48 104.529 1453.71 315.971 1453.85 449.534C1453.92 518.398 1453.98 566.56 1463.5 544.835L1442.92 900C1423.84 864.637 1388.03 843.118 1323 853.044C1303.89 853.044 1285.81 858.613 1269.74 868.532C1264.35 795.054 1235.35 729.705 1130.76 745.666C1068.59 745.666 1017.36 804.617 1010.38 880.551C986.162 861.76 956.032 850.62 923.375 850.62C883.284 850.62 847.001 867.409 820.795 894.532C796.576 855.997 759.33 831.316 717.557 831.316C715.466 831.316 713.385 831.378 711.318 831.5C688.729 743.13 612.144 678.092 521.142 678.092C454.234 678.092 395.118 713.251 359.528 766.992C331.809 751.825 300.24 743.242 266.743 743.242C236.4 743.242 207.638 750.285 181.887 762.885C169.682 708.008 137.087 667.587 58.4682 680.516C28.9383 680.516 2.06661 695.959 -18 721.22V-14Z" fill="#37BCE6"/>
<path fill-rule="evenodd" clip-rule="evenodd" d="M-18 -14H1040.14C1041.27 -7.05279 1042.11 1.782 1043.06 11.717C1049.65 80.6194 1061.29 202.44 1207.96 114.516C1300.01 59.3421 1312.29 114.276 1322.01 157.76C1330.01 193.562 1336.28 221.601 1383.9 174.034C1453.48 104.529 1453.71 315.971 1453.85 449.534C1453.92 518.398 1453.98 566.56 1463.5 544.835L1442.92 900C1423.84 864.637 1388.03 843.118 1323 853.044C1303.89 853.044 1285.81 858.613 1269.74 868.532C1264.35 795.054 1235.35 729.705 1130.76 745.666C1068.59 745.666 1017.36 804.617 1010.38 880.551C986.162 861.76 956.032 850.62 923.375 850.62C883.284 850.62 847.001 867.409 820.795 894.532C796.576 855.997 759.33 831.316 717.557 831.316C715.466 831.316 713.385 831.378 711.318 831.5C688.729 743.13 612.144 678.092 521.142 678.092C454.234 678.092 395.118 713.251 359.528 766.992C331.809 751.825 300.24 743.242 266.743 743.242C236.4 743.242 207.638 750.285 181.887 762.885C169.682 708.008 137.087 667.587 58.4682 680.516C28.9383 680.516 2.06661 695.959 -18 721.22V-14Z" fill="url(#paint0_linear)"/>
<path d="M1325.11 853.399C1261.6 853.399 1060.61 747.898 1210.11 704.898C1163.61 674.398 1178.11 642.399 1269.11 600.899C1375.11 552.558 1440.11 560.384 1440.11 642.399C1325.11 739.398 1472.11 768.398 1325.11 853.399Z" fill="url(#paint1_linear)"/>
<path d="M153.5 360.222C80.3223 360.222 -26 251.073 -26 160.222C-26 69.371 30.3223 98.7218 103.5 98.7218C176.678 98.7218 294.5 137.371 294.5 228.222C294.5 319.073 226.678 360.222 153.5 360.222Z" fill="url(#paint2_linear)"/>
<path d="M1247.7 280C1161.4 280 1036 145.832 1036 34.1557C1036 -77.5201 1102.43 -41.4414 1188.73 -41.4414C1275.04 -41.4414 1414 6.06702 1414 117.743C1414 229.419 1334.01 280 1247.7 280Z" fill="url(#paint3_linear)"/>
<defs>
<linearGradient id="paint0_linear" x1="493.579" y1="819.776" x2="739.428" y2="-9.05293" gradientUnits="userSpaceOnUse">
<stop stop-color="#202D9D"/>
<stop offset="1" stop-color="#37BCE6"/>
</linearGradient>
<linearGradient id="paint1_linear" x1="1394" y1="612" x2="1204.5" y2="759" gradientUnits="userSpaceOnUse">
<stop stop-color="#7CC9EA" stop-opacity="0.89"/>
<stop offset="0.43248" stop-color="#B8A8F9" stop-opacity="0.67"/>
<stop offset="0.890625" stop-color="#A55CB7" stop-opacity="0.3"/>
</linearGradient>
<linearGradient id="paint2_linear" x1="199.5" y1="148" x2="134" y2="318.5" gradientUnits="userSpaceOnUse">
<stop stop-color="#F2D7EB" stop-opacity="0.89"/>
<stop offset="1" stop-color="#966DB7" stop-opacity="0.1"/>
</linearGradient>
<linearGradient id="paint3_linear" x1="1091" y1="24.5" x2="1301.03" y2="203.819" gradientUnits="userSpaceOnUse">
<stop stop-color="#F2D7EB" stop-opacity="0.89"/>
<stop offset="0.415893" stop-color="#CE6A82" stop-opacity="0.81"/>
<stop offset="1" stop-color="#9469B6" stop-opacity="0.6"/>
</linearGradient>
</defs>
</svg>
