<svg width="1440" height="900" viewBox="0 0 1440 900" fill="none" xmlns="http://www.w3.org/2000/svg">
<path fill-rule="evenodd" clip-rule="evenodd" d="M-18 -14H1040.14C1041.27 -7.05279 1042.11 1.782 1043.06 11.717C1049.65 80.6194 1061.29 202.44 1207.96 114.516C1300.01 59.3421 1312.29 114.276 1322.01 157.76C1330.01 193.562 1336.28 221.601 1383.9 174.034C1453.48 104.529 1453.71 315.971 1453.85 449.534C1453.92 518.398 1453.98 566.56 1463.5 544.835L1442.92 900C1423.84 864.637 1388.03 843.118 1323 853.044C1303.89 853.044 1285.81 858.613 1269.74 868.532C1264.35 795.054 1235.35 729.705 1130.76 745.666C1068.59 745.666 1017.36 804.617 1010.38 880.551C986.162 861.76 956.032 850.62 923.375 850.62C883.284 850.62 847.001 867.409 820.795 894.532C796.576 855.997 759.33 831.316 717.557 831.316C715.466 831.316 713.385 831.378 711.318 831.5C688.729 743.13 612.144 678.092 521.142 678.092C454.234 678.092 395.118 713.251 359.528 766.992C331.809 751.825 300.24 743.242 266.743 743.242C236.4 743.242 207.638 750.285 181.887 762.885C169.682 708.008 137.087 667.587 58.4682 680.516C28.9383 680.516 2.06661 695.959 -18 721.22V-14Z" fill="#37BCE6"/>
<path fill-rule="evenodd" clip-rule="evenodd" d="M-18 -14H1040.14C1041.27 -7.05279 1042.11 1.782 1043.06 11.717C1049.65 80.6194 1061.29 202.44 1207.96 114.516C1300.01 59.3421 1312.29 114.276 1322.01 157.76C1330.01 193.562 1336.28 221.601 1383.9 174.034C1453.48 104.529 1453.71 315.971 1453.85 449.534C1453.92 518.398 1453.98 566.56 1463.5 544.835L1442.92 900C1423.84 864.637 1388.03 843.118 1323 853.044C1303.89 853.044 1285.81 858.613 1269.74 868.532C1264.35 795.054 1235.35 729.705 1130.76 745.666C1068.59 745.666 1017.36 804.617 1010.38 880.551C986.162 861.76 956.032 850.62 923.375 850.62C883.284 850.62 847.001 867.409 820.795 894.532C796.576 855.997 759.33 831.316 717.557 831.316C715.466 831.316 713.385 831.378 711.318 831.5C688.729 743.13 612.144 678.092 521.142 678.092C454.234 678.092 395.118 713.251 359.528 766.992C331.809 751.825 300.24 743.242 266.743 743.242C236.4 743.242 207.638 750.285 181.887 762.885C169.682 708.008 137.087 667.587 58.4682 680.516C28.9383 680.516 2.06661 695.959 -18 721.22V-14Z" fill="url(#paint0_linear)"/>
<defs>
<linearGradient id="paint0_linear" x1="493.579" y1="819.776" x2="739.428" y2="-9.05293" gradientUnits="userSpaceOnUse">
<stop stop-color="#202D9D"/>
<stop offset="1" stop-color="#37BCE6"/>
</linearGradient>
</defs>
</svg>
