<svg width="1440" height="255" viewBox="0 0 1440 255" fill="none" xmlns="http://www.w3.org/2000/svg">
<path fill-rule="evenodd" clip-rule="evenodd" d="M708.53 46.5163C695.746 54.6957 681.307 60.9501 665.578 64.7202C624.76 74.5038 584.095 65.4388 553.73 43.3318C545.048 46.9047 535.667 49.827 525.807 52.1903C474.884 64.3962 451.589 52.0059 435.688 0H0V197.063C4.21018 196.365 8.55603 196 13 196C26.1193 196 38.3834 199.184 48.8263 204.711C62.4957 196.614 78.2411 192 95 192C117.42 192 138.026 200.257 154.274 214.066C183.312 215.246 207.658 232.033 216.469 255H1174.77C1174.26 252.064 1174 249.059 1174 246C1174 212.863 1204.89 186 1243 186C1256.12 186 1268.38 189.184 1278.83 194.711C1292.5 186.614 1308.24 182 1325 182C1347.42 182 1368.03 190.257 1384.27 204.066C1407.9 205.026 1428.43 216.322 1440 232.873V0L879.18 0C870.269 40.266 843.536 72.2815 806.297 81.2073C770.916 89.6877 734.539 75.2912 708.53 46.5163Z" fill="#C4C4C4"/>
<g style="mix-blend-mode:overlay">
<path fill-rule="evenodd" clip-rule="evenodd" d="M1387.81 143L1391.56 204.699C1412.09 207.441 1429.64 218.049 1440 232.873V245.281C1428.43 238.012 1407.9 233.051 1384.27 232.629C1368.03 226.564 1347.42 222.937 1325 222.937C1308.24 222.937 1292.5 224.964 1278.83 228.52C1268.38 226.093 1256.12 224.694 1243 224.694C1206.25 224.694 1176.2 235.669 1174.12 249.507C1174.04 248.346 1174 247.177 1174 246C1174 235.938 1176.85 226.455 1181.88 218.127L1105.88 143H1135.75L1195.73 202.29C1203.83 195.667 1213.76 190.726 1224.8 188.109L1195.22 143H1220.34L1248.66 186.199C1259.65 186.975 1269.9 189.987 1278.83 194.711C1280.72 193.589 1282.66 192.534 1284.63 191.548L1272.91 143L1285.98 143L1296.51 186.62C1304.26 184.033 1312.44 182.473 1320.91 182.092L1318.54 143L1331.27 143L1333.66 182.414C1350.2 184.004 1365.52 190.1 1378.52 199.54L1375.08 143H1387.81ZM1402.36 143L1404.92 185.138C1405.14 188.641 1408.15 191.308 1411.65 191.095C1415.15 190.883 1417.82 187.871 1417.61 184.368L1415.1 143H1402.36ZM1241.59 143H1255.65L1258.47 148.954C1259.97 152.126 1258.61 155.914 1255.44 157.415C1252.27 158.915 1248.48 157.56 1246.98 154.387L1241.59 143ZM1046.27 143H1064.64L1079.13 156.877C1081.66 159.305 1081.75 163.327 1079.32 165.861C1076.89 168.395 1072.87 168.482 1070.34 166.055L1046.27 143ZM1005.35 143L1118.65 255H1088.78L975.473 143H1005.35ZM954.046 143L1012.05 214.798C1014.25 217.527 1013.83 221.528 1011.1 223.733C1008.37 225.939 1004.37 225.513 1002.16 222.784L937.709 143H954.046ZM915.056 143L983.532 255H958.919L890.442 143H915.056ZM832.78 173.752L864.611 255H842.057L811.887 177.993C819.334 176.977 826.32 175.544 832.78 173.752ZM747.972 176.138C739.106 174.429 730.628 172.143 722.76 169.354L756.315 255H778.869L747.972 176.138ZM727.418 255C727.387 254.906 727.354 254.812 727.32 254.719C727.309 254.69 727.298 254.661 727.288 254.632C727.271 254.587 727.253 254.541 727.235 254.496L693.032 167.194C686.307 168.588 679.233 169.766 671.851 170.7L704.879 255H727.418ZM648 255V172.774C640.933 173.117 633.915 173.22 627 173.096V255H648ZM596 255V170.963C585.05 169.627 574.63 167.702 565 165.253V255H596ZM493.755 255L552.306 181.283C555.912 176.742 555.155 170.137 550.614 166.53C546.073 162.924 539.468 163.681 535.862 168.222L466.938 255H493.755ZM356.698 255L407.306 191.283C410.912 186.742 410.155 180.137 405.614 176.53C401.073 172.924 394.468 173.681 390.862 178.222L329.88 255H356.698ZM278 255L418.549 143H356.275L230 255H278ZM251.53 143L157.597 214.271C185.159 216.544 207.996 232.915 216.469 255C207.658 244.913 183.312 237.539 154.274 237.021C138.026 230.956 117.42 227.329 95 227.329C78.2411 227.329 62.4957 229.356 48.8263 232.912C38.3834 230.485 26.1193 229.086 13 229.086C8.55603 229.086 4.21018 229.247 0 229.553V197.063C4.21018 196.365 8.55603 196 13 196C26.1193 196 38.3834 199.184 48.8263 204.711C62.4957 196.614 78.2411 192 95 192C102.692 192 110.17 192.972 117.332 194.806L116 194L180.874 143H251.53ZM63.9175 143L0 193V143H63.9175ZM467.135 164.916L428.658 213.36C425.051 217.901 425.809 224.506 430.35 228.112C434.891 231.719 441.496 230.962 445.102 226.421L491.66 167.803C482.203 167.646 474.132 166.718 467.135 164.916ZM857.501 172.383C862.371 169.235 868.871 170.63 872.019 175.5L903.491 224.18C906.639 229.049 905.243 235.55 900.374 238.698C895.504 241.846 889.004 240.451 885.855 235.581L854.384 186.902C851.235 182.032 852.631 175.532 857.501 172.383Z" fill="#FFA500"/>
</g>
<g style="mix-blend-mode:overlay">
<path fill-rule="evenodd" clip-rule="evenodd" d="M774.635 82.9106L842.057 255H864.611L797.181 82.8895C789.63 83.873 782.078 83.8527 774.635 82.9106ZM841.832 63.493L958.919 255H983.532L856.979 48.0087C852.453 53.7607 847.386 58.9576 841.832 63.493ZM865.925 34.7108L1088.78 255H1118.65L875.15 14.3017C872.664 21.4982 869.573 28.3346 865.925 34.7108ZM961.217 0L1181.88 218.127C1185.47 212.192 1190.16 206.843 1195.73 202.29L991.089 0H961.217ZM1101.46 0L1224.8 188.109C1230.6 186.734 1236.7 186 1243 186C1244.91 186 1246.79 186.067 1248.66 186.199L1126.57 0H1101.46ZM1238.39 0L1284.63 191.548C1288.46 189.634 1292.42 187.984 1296.51 186.62L1251.46 0H1238.39ZM1309.85 0L1320.91 182.092C1322.27 182.031 1323.63 182 1325 182C1327.92 182 1330.81 182.14 1333.66 182.414L1322.58 0H1309.85ZM1366.4 0L1378.52 199.54C1380.49 200.973 1382.41 202.483 1384.27 204.066C1386.74 204.167 1389.17 204.379 1391.56 204.699L1379.13 0H1366.4ZM778.869 255L699.307 51.9249C693.206 55.1921 686.787 58.0417 680.082 60.4227L756.315 255H778.869ZM727.418 255C727.387 254.906 727.354 254.812 727.32 254.719C727.309 254.69 727.298 254.661 727.288 254.632C727.271 254.587 727.253 254.541 727.235 254.496L687.383 152.776C685.268 147.377 679.176 144.715 673.777 146.83C668.377 148.946 665.715 155.038 667.83 160.437L704.879 255H727.418ZM648 255V67.7898C640.933 68.5703 633.915 68.8041 627 68.5219V255H648ZM596 255V63.6653C585.05 60.6241 574.63 56.2413 565 50.6656V255H596ZM493.755 255L552.306 181.283C555.912 176.742 555.155 170.137 550.614 166.53C546.073 162.924 539.468 163.681 535.862 168.222L466.938 255H493.755ZM356.698 255L407.306 191.283C410.912 186.742 410.155 180.137 405.614 176.53C401.073 172.924 394.468 173.681 390.862 178.222L329.88 255H356.698ZM278 255L534 51H530.551C528.983 51.4117 527.401 51.8083 525.807 52.1903C501.245 58.0777 483.111 58.2428 469.133 51H460L230 255H278ZM157.597 214.271L436.514 2.64469C436.237 1.77477 435.962 0.893224 435.688 0L362.774 1.52588e-05L116 194L117.332 194.806C116.694 194.643 116.053 194.486 115.41 194.336C129.873 197.703 143.103 204.572 154.274 214.066C155.389 214.112 156.497 214.18 157.597 214.271ZM0 193L246.722 0H174.706L0 135V193ZM1411.65 191.095C1408.15 191.308 1405.14 188.641 1404.92 185.138L1395.39 28.1129C1395.17 24.6101 1397.84 21.598 1401.34 21.3853C1404.85 21.1725 1407.86 23.8396 1408.07 27.3424L1417.61 184.368C1417.82 187.871 1415.15 190.883 1411.65 191.095ZM1246.98 154.387C1248.48 157.56 1252.27 158.915 1255.44 157.415C1258.61 155.914 1259.97 152.126 1258.47 148.954L1191.2 6.74398C1189.7 3.57167 1185.92 2.21637 1182.74 3.71683C1179.57 5.21729 1178.22 9.00531 1179.72 12.1776L1246.98 154.387ZM1011.1 223.733C1008.37 225.939 1004.37 225.513 1002.16 222.784L920.462 121.651C918.257 118.922 918.682 114.921 921.412 112.716C924.141 110.51 928.142 110.936 930.347 113.665L1012.05 214.798C1014.25 217.527 1013.83 221.528 1011.1 223.733ZM1070.34 166.055C1072.87 168.482 1076.89 168.395 1079.32 165.861C1081.75 163.327 1081.66 159.305 1079.13 156.877L985.235 66.9488C982.701 64.5215 978.679 64.6082 976.252 67.1425C973.824 69.6769 973.911 73.6991 976.445 76.1265L1070.34 166.055ZM1136.78 110.223C1134.16 112.555 1130.14 112.32 1127.81 109.698L1072.22 47.1934C1069.89 44.5711 1070.13 40.5548 1072.75 38.2227C1075.37 35.8906 1079.39 36.1257 1081.72 38.748L1137.31 101.252C1139.64 103.874 1139.4 107.891 1136.78 110.223ZM657.777 81.8303C663.176 79.7149 669.268 82.3771 671.383 87.7765L684.312 120.776C686.427 126.176 683.765 132.268 678.366 134.383C672.966 136.498 666.875 133.836 664.759 128.437L651.83 95.437C649.715 90.0376 652.377 83.9457 657.777 81.8303ZM843.268 104.524C840.119 99.6542 833.619 98.2587 828.749 101.407C823.88 104.555 822.484 111.056 825.632 115.925L844.875 145.689C848.023 150.559 854.523 151.955 859.393 148.806C864.263 145.658 865.658 139.158 862.51 134.288L843.268 104.524ZM857.501 172.383C862.371 169.235 868.871 170.63 872.019 175.5L903.491 224.18C906.639 229.049 905.243 235.55 900.374 238.698C895.504 241.846 889.004 240.451 885.855 235.581L854.384 186.902C851.235 182.032 852.631 175.532 857.501 172.383ZM428.658 213.36C425.051 217.901 425.809 224.506 430.35 228.112C434.891 231.719 441.496 230.962 445.102 226.421L525.433 125.281C529.04 120.74 528.283 114.135 523.742 110.528C519.201 106.922 512.596 107.679 508.989 112.22L428.658 213.36Z" fill="url(#paint0_linear)"/>
</g>
<g style="mix-blend-mode:overlay">
<path fill-rule="evenodd" clip-rule="evenodd" d="M1391.56 204.699L1379.13 0H1440V232.873C1429.64 218.049 1412.09 207.441 1391.56 204.699ZM1366.4 0H1322.58L1333.66 182.414C1350.2 184.004 1365.52 190.1 1378.52 199.54L1366.4 0ZM1251.46 0H1309.85L1320.91 182.092C1312.44 182.473 1304.26 184.033 1296.51 186.62L1251.46 0ZM1238.39 0L1284.63 191.548C1282.66 192.534 1280.72 193.589 1278.83 194.711C1269.9 189.987 1259.65 186.975 1248.66 186.199L1126.57 0H1238.39ZM991.089 0H1101.46L1224.8 188.109C1213.76 190.726 1203.83 195.667 1195.73 202.29L991.089 0ZM961.217 0H879.18C878.096 4.89824 876.748 9.67439 875.15 14.3017L1118.65 255H1174.77C1174.26 252.064 1174 249.059 1174 246C1174 235.938 1176.85 226.455 1181.88 218.127L961.217 0ZM0 0H174.706L0 135V0ZM0 197.063V193L246.722 0H435.688L362.774 1.52588e-05L116 194L117.332 194.806C110.17 192.972 102.692 192 95 192C78.2411 192 62.4957 196.614 48.8263 204.711C38.3834 199.184 26.1193 196 13 196C8.55603 196 4.21018 196.365 0 197.063ZM157.597 214.271L436.514 2.64469C444.603 27.994 454.63 43.4848 469.133 51H460L230 255L216.469 255C207.996 232.915 185.159 216.544 157.597 214.271ZM596 255H627V68.5219C616.359 68.0876 605.96 66.4315 596 63.6653V255ZM704.879 255H648V67.7898C653.836 67.1452 659.705 66.1277 665.578 64.7202C670.545 63.5296 675.384 62.0912 680.082 60.4227L756.315 255H727.418C727.387 254.906 727.354 254.812 727.32 254.719C727.309 254.69 727.298 254.661 727.288 254.632C727.271 254.587 727.253 254.541 727.235 254.496L687.383 152.776C685.268 147.377 679.176 144.715 673.777 146.83C668.377 148.946 665.715 155.038 667.83 160.437L704.879 255ZM778.869 255L699.307 51.9249C702.469 50.2318 705.545 48.4266 708.53 46.5163C726.772 66.698 750.114 79.8067 774.635 82.9106L842.057 255H778.869ZM864.611 255L797.181 82.8895C800.222 82.4934 803.263 81.9344 806.297 81.2073C819.592 78.0206 831.548 71.8907 841.832 63.493L958.919 255H864.611ZM983.532 255L1088.78 255L865.925 34.7108C863.238 39.4065 860.249 43.8525 856.979 48.0087L983.532 255ZM565 255V50.6656C561.109 48.4125 557.346 45.9647 553.73 43.3318C546.452 46.3271 538.682 48.8652 530.551 51H534L278 255H329.88L390.862 178.222C394.468 173.681 401.073 172.924 405.614 176.53C410.155 180.137 410.912 186.742 407.306 191.283L356.698 255H466.938L535.862 168.222C539.468 163.681 546.073 162.924 550.614 166.53C555.155 170.137 555.912 176.742 552.306 181.283L493.755 255H565ZM1404.92 185.138C1405.14 188.641 1408.15 191.308 1411.65 191.095C1415.15 190.883 1417.82 187.871 1417.61 184.368L1408.07 27.3424C1407.86 23.8396 1404.85 21.1725 1401.34 21.3853C1397.84 21.598 1395.17 24.6101 1395.39 28.1129L1404.92 185.138ZM1255.44 157.415C1252.27 158.915 1248.48 157.56 1246.98 154.387L1179.72 12.1776C1178.22 9.00531 1179.57 5.21729 1182.74 3.71683C1185.92 2.21637 1189.7 3.57167 1191.2 6.74398L1258.47 148.954C1259.97 152.126 1258.61 155.914 1255.44 157.415ZM1002.16 222.784C1004.37 225.513 1008.37 225.939 1011.1 223.733C1013.83 221.528 1014.25 217.527 1012.05 214.798L930.347 113.665C928.142 110.936 924.141 110.51 921.412 112.716C918.682 114.921 918.257 118.922 920.462 121.651L1002.16 222.784ZM1079.32 165.861C1076.89 168.395 1072.87 168.482 1070.34 166.055L976.445 76.1265C973.911 73.6991 973.824 69.6769 976.252 67.1425C978.679 64.6082 982.701 64.5215 985.235 66.9488L1079.13 156.877C1081.66 159.305 1081.75 163.327 1079.32 165.861ZM1127.81 109.698C1130.14 112.32 1134.16 112.555 1136.78 110.223C1139.4 107.891 1139.64 103.874 1137.31 101.252L1081.72 38.748C1079.39 36.1257 1075.37 35.8906 1072.75 38.2227C1070.13 40.5548 1069.89 44.5711 1072.22 47.1934L1127.81 109.698ZM671.383 87.7765C669.268 82.3771 663.176 79.7149 657.777 81.8303C652.377 83.9457 649.715 90.0376 651.83 95.437L664.759 128.437C666.875 133.836 672.966 136.498 678.366 134.383C683.765 132.268 686.427 126.176 684.312 120.776L671.383 87.7765ZM828.749 101.407C833.619 98.2587 840.119 99.6542 843.268 104.524L862.51 134.288C865.658 139.158 864.263 145.658 859.393 148.806C854.523 151.955 848.023 150.559 844.875 145.689L825.632 115.925C822.484 111.056 823.88 104.555 828.749 101.407ZM872.019 175.5C868.871 170.63 862.371 169.235 857.501 172.383C852.631 175.532 851.235 182.032 854.384 186.902L885.855 235.581C889.004 240.451 895.504 241.846 900.374 238.698C905.243 235.55 906.639 229.049 903.491 224.18L872.019 175.5ZM430.35 228.112C425.809 224.506 425.051 217.901 428.658 213.36L508.989 112.22C512.596 107.679 519.201 106.922 523.742 110.528C528.283 114.135 529.04 120.74 525.433 125.281L445.102 226.421C441.496 230.962 434.891 231.719 430.35 228.112Z" fill="#CFA7A7"/>
</g>
<defs>
<linearGradient id="paint0_linear" x1="612.333" y1="175" x2="616.396" y2="19.0032" gradientUnits="userSpaceOnUse">
<stop stop-color="#99AFE9" stop-opacity="0.7"/>
<stop stop-color="#99D1E9"/>
<stop offset="0.0001" stop-color="#99D1E9"/>
<stop offset="0.9999" stop-color="#A1E0EE" stop-opacity="0.46"/>
</linearGradient>
</defs>
</svg>
