<svg width="1653" height="449" viewBox="0 0 1653 449" fill="none" xmlns="http://www.w3.org/2000/svg">
<path fill-rule="evenodd" clip-rule="evenodd" d="M573.201 111.82C573.201 121.489 571.745 130.871 569.007 139.819C580.903 137.82 593.284 136.764 605.999 136.764C657.664 136.764 703.816 154.191 734.262 181.517C759.923 169.516 790.346 162.569 822.968 162.569C848.406 162.569 872.508 166.794 894.056 174.344C912.153 121.123 977.38 81.7146 1055.07 81.7146C1146.76 81.7146 1221.08 136.592 1221.08 204.286C1221.08 205.463 1221.06 206.635 1221.01 207.803C1234.41 205.227 1248.47 203.856 1262.96 203.856C1306.13 203.856 1345.45 216.023 1374.98 235.966C1404.5 216.023 1443.82 203.856 1486.99 203.856C1578.68 203.856 1653 258.734 1653 326.428C1653 394.123 1578.68 449 1486.99 449C1443.82 449 1404.5 436.833 1374.98 416.89C1345.45 436.833 1306.13 449 1262.96 449C1171.28 449 1096.95 394.123 1096.95 326.428C1096.95 325.252 1096.98 324.08 1097.02 322.912C1083.62 325.487 1069.57 326.858 1055.07 326.858C1029.64 326.858 1005.53 322.634 983.986 315.083C965.89 368.304 900.662 407.713 822.968 407.713C771.303 407.713 725.151 390.286 694.705 362.96C669.044 374.961 638.621 381.908 605.999 381.908C534.547 381.908 473.639 348.577 450.237 301.825C423.983 338.047 383.494 361.264 338.068 361.264C317.606 361.264 298.145 356.553 280.537 348.065C250.747 369.034 210.413 381.908 166.006 381.908C74.3236 381.908 0 327.031 0 259.336C0 191.642 74.3236 136.764 166.006 136.764C180.099 136.764 193.782 138.061 206.848 140.501C228.365 86.8058 276.396 48.8218 332.729 46.5555C356.822 18.3588 396.115 0 440.497 0C513.788 0 573.201 50.0635 573.201 111.82Z" fill="white"/>
</svg>
