<svg width="807" height="334" viewBox="0 0 807 334" fill="none" xmlns="http://www.w3.org/2000/svg">
<path d="M30.5591 -20.4751C157.763 -64.1473 615.593 -44.6716 870 -44.6715L861.76 329.492H768.546C768.546 329.492 611.473 368.443 730.437 217.361C849.4 66.2792 666.577 84.3725 548.128 217.361C429.68 350.349 573.363 8.44311 425.045 91.066C276.726 173.689 340.071 18.4759 128.408 110.541C-83.2546 202.607 30.5591 -20.4751 30.5591 -20.4751Z" fill="#B22B2B"/>
<path d="M30.5591 -20.4751C157.763 -64.1473 615.593 -44.6716 870 -44.6715L861.76 329.492H768.546C768.546 329.492 611.473 368.443 730.437 217.361C849.4 66.2792 666.577 84.3725 548.128 217.361C429.68 350.349 573.363 8.44311 425.045 91.066C276.726 173.689 340.071 18.4759 128.408 110.541C-83.2546 202.607 30.5591 -20.4751 30.5591 -20.4751Z" fill="url(#paint0_linear)"/>
<path d="M30.5591 -20.4751C157.763 -64.1473 615.593 -44.6716 870 -44.6715L861.76 329.492H768.546C768.546 329.492 611.473 368.443 730.437 217.361C849.4 66.2792 666.577 84.3725 548.128 217.361C429.68 350.349 573.363 8.44311 425.045 91.066C276.726 173.689 340.071 18.4759 128.408 110.541C-83.2546 202.607 30.5591 -20.4751 30.5591 -20.4751Z" fill="url(#paint1_linear)" fill-opacity="0.8"/>
<defs>
<linearGradient id="paint0_linear" x1="474" y1="169" x2="725" y2="66" gradientUnits="userSpaceOnUse">
<stop stop-color="#B32B2B" stop-opacity="0.95"/>
<stop offset="0.848958" stop-color="#2F82BD"/>
</linearGradient>
<linearGradient id="paint1_linear" x1="750" y1="379" x2="836.304" y2="195.273" gradientUnits="userSpaceOnUse">
<stop stop-color="#F26A6A"/>
<stop offset="1" stop-color="#E75959" stop-opacity="0.33"/>
</linearGradient>
</defs>
</svg>
